<svg width="20" height="20" viewBox="0 0 20 20" fill="none" xmlns="http://www.w3.org/2000/svg">
<path fill-rule="evenodd" clip-rule="evenodd" d="M9.16669 0.208313C4.67937 0.208313 1.04169 3.846 1.04169 8.33331C1.04169 12.8206 4.67937 16.4583 9.16669 16.4583C13.654 16.4583 17.2917 12.8206 17.2917 8.33331C17.2917 3.846 13.654 0.208313 9.16669 0.208313ZM2.29169 8.33331C2.29169 4.53636 5.36973 1.45831 9.16669 1.45831C12.9636 1.45831 16.0417 4.53636 16.0417 8.33331C16.0417 12.1303 12.9636 15.2083 9.16669 15.2083C5.36973 15.2083 2.29169 12.1303 2.29169 8.33331Z" fill="#A5A4A5"/>
<path d="M16.2754 14.5581C16.0313 14.314 15.6355 14.314 15.3915 14.5581C15.1474 14.8022 15.1474 15.1979 15.3915 15.442L18.7247 18.7753C18.9688 19.0194 19.3645 19.0194 19.6086 18.7753C19.8527 18.5312 19.8527 18.1355 19.6086 17.8914L16.2754 14.5581Z" fill="#A5A4A5"/>
</svg>
